# xmcd
#
# Track frame offsets:
#        150
#        18667
#        37127
#        54920
#        73220
#        91170
#        109747
#        127710
#        146395
#        165002
#        183392
#        201342
#        219695
#        237605
#        256100
#        273887
#        292477
#        310732
#
# Disc length: 4382 seconds
#
# Revision: 0
# Processed by: cddbd v1.5.1PL2 Copyright (c) Steve Scherf et al.
# Submitted via: ExactAudioCopy v0.95a5
#
DISCID=09111c12
DTITLE=Various Artist - SUPER EUROBEAT VOL.149
DYEAR=2004
DGENRE=Eurodance
TTITLE0=GO GO GIRLS - GO GO'S AND THE MONKEYS
TTITLE1=JIMMY BRAVO - MAZINGER GO!
TTITLE2=MANUEL - LET'S GO, COME ON
TTITLE3=DONNA - GET ME BURNING UP
TTITLE4=MATT LAND - SUPERFANTASTICO
TTITLE5=NEWFIELD - MORONI - SINCLAIRE - DON'T LET MY LOVE DISAPPEAR
TTITLE6=FASTWAY - RUN
TTITLE7=FRANZ TORNADO - BAZOOCOW
TTITLE8=ALEXIS - TAKE ME TAKE ME
TTITLE9=NORMA SHEFFIELD - LISTEN TO ME
TTITLE10=KEVIN JOHNSON - NEVER GONNA GIVE YOU UP
TTITLE11=HAPPY HOURS - ECLIPSE OF YOUR LOVE
TTITLE12=DAVID "OFF" - HEAT OF THE NIGHT
TTITLE13=ROBBIE GRAIN - CRAZY
TTITLE14=MIKE WEST - WAITING FOR MY LOVE
TTITLE15=NUAGE - RUNNING TO THE NIGHT
TTITLE16=SCREAM TEAM - ICE CREAM (U SCREAM)
TTITLE17=NAMELESS - S.M.S
EXTD=
EXTT0=
EXTT1=
EXTT2=
EXTT3=
EXTT4=
EXTT5=
EXTT6=
EXTT7=
EXTT8=
EXTT9=
EXTT10=
EXTT11=
EXTT12=
EXTT13=
EXTT14=
EXTT15=
EXTT16=
EXTT17=
PLAYORDER=
